<?xml version="1.0" encoding="UTF-8"?>
<!DOCTYPE svg PUBLIC "-//W3C//DTD SVG 1.1//EN" "http://www.w3.org/Graphics/SVG/1.1/DTD/svg11.dtd">
<!-- Creator: CorelDRAW 2021 (64-Bit) -->
<svg xmlns="http://www.w3.org/2000/svg" xml:space="preserve" width="754px" height="43px" version="1.1" style="shape-rendering:geometricPrecision; text-rendering:geometricPrecision; image-rendering:optimizeQuality; fill-rule:evenodd; clip-rule:evenodd"
viewBox="0 0 216.529 12.341"
 xmlns:xlink="http://www.w3.org/1999/xlink"
 xmlns:xodm="http://www.corel.com/coreldraw/odm/2003">
 <defs>
  <style type="text/css">
   <![CDATA[
    .fil0 {fill:#2E4562;fill-rule:nonzero}
   ]]>
  </style>
 </defs>
 <g id="Layer_x0020_1">
  <metadata id="CorelCorpID_0Corel-Layer"/>
  <g id="_2853632524096">
   <polygon class="fil0" points="0,10.865 3.289,10.865 3.289,10.364 0,10.364 "/>
   <polygon class="fil0" points="1.394,12.341 1.895,12.341 1.895,8.883 1.394,8.883 "/>
   <polygon class="fil0" points="10.151,10.865 13.439,10.865 13.439,10.364 10.151,10.364 "/>
   <polygon class="fil0" points="11.544,12.341 12.044,12.341 12.044,8.883 11.544,8.883 "/>
   <polygon class="fil0" points="20.3,10.865 23.59,10.865 23.59,10.364 20.3,10.364 "/>
   <polygon class="fil0" points="21.694,12.341 22.194,12.341 22.194,8.883 21.694,8.883 "/>
   <polygon class="fil0" points="30.449,10.865 33.74,10.865 33.74,10.364 30.449,10.364 "/>
   <polygon class="fil0" points="31.844,12.341 32.344,12.341 32.344,8.883 31.844,8.883 "/>
   <polygon class="fil0" points="0,1.982 3.289,1.982 3.289,1.482 0,1.482 "/>
   <polygon class="fil0" points="1.394,3.459 1.895,3.459 1.895,0 1.394,0 "/>
   <polygon class="fil0" points="10.151,1.982 13.439,1.982 13.439,1.482 10.151,1.482 "/>
   <polygon class="fil0" points="11.544,3.459 12.044,3.459 12.044,0 11.544,0 "/>
   <polygon class="fil0" points="20.3,1.982 23.59,1.982 23.59,1.482 20.3,1.482 "/>
   <polygon class="fil0" points="21.694,3.459 22.194,3.459 22.194,0 21.694,0 "/>
   <polygon class="fil0" points="30.449,1.982 33.74,1.982 33.74,1.482 30.449,1.482 "/>
   <polygon class="fil0" points="31.844,3.459 32.344,3.459 32.344,0 31.844,0 "/>
   <polygon class="fil0" points="30.465,10.865 33.754,10.865 33.754,10.364 30.465,10.364 "/>
   <polygon class="fil0" points="31.859,12.341 32.359,12.341 32.359,8.883 31.859,8.883 "/>
   <polygon class="fil0" points="40.616,10.865 43.903,10.865 43.903,10.364 40.616,10.364 "/>
   <polygon class="fil0" points="42.009,12.341 42.509,12.341 42.509,8.883 42.009,8.883 "/>
   <polygon class="fil0" points="50.764,10.865 54.055,10.865 54.055,10.364 50.764,10.364 "/>
   <polygon class="fil0" points="52.159,12.341 52.659,12.341 52.659,8.883 52.159,8.883 "/>
   <polygon class="fil0" points="60.914,10.865 64.205,10.865 64.205,10.364 60.914,10.364 "/>
   <polygon class="fil0" points="62.308,12.341 62.809,12.341 62.809,8.883 62.308,8.883 "/>
   <polygon class="fil0" points="30.465,1.982 33.754,1.982 33.754,1.482 30.465,1.482 "/>
   <polygon class="fil0" points="31.859,3.459 32.359,3.459 32.359,0 31.859,0 "/>
   <polygon class="fil0" points="40.616,1.982 43.903,1.982 43.903,1.482 40.616,1.482 "/>
   <polygon class="fil0" points="42.009,3.459 42.509,3.459 42.509,0 42.009,0 "/>
   <polygon class="fil0" points="50.764,1.982 54.055,1.982 54.055,1.482 50.764,1.482 "/>
   <polygon class="fil0" points="52.159,3.459 52.659,3.459 52.659,0 52.159,0 "/>
   <polygon class="fil0" points="60.914,1.982 64.205,1.982 64.205,1.482 60.914,1.482 "/>
   <polygon class="fil0" points="62.308,3.459 62.809,3.459 62.809,0 62.308,0 "/>
   <polygon class="fil0" points="60.93,10.865 64.219,10.865 64.219,10.364 60.93,10.364 "/>
   <polygon class="fil0" points="62.324,12.341 62.824,12.341 62.824,8.883 62.324,8.883 "/>
   <polygon class="fil0" points="71.081,10.865 74.368,10.865 74.368,10.364 71.081,10.364 "/>
   <polygon class="fil0" points="72.473,12.341 72.974,12.341 72.974,8.883 72.473,8.883 "/>
   <polygon class="fil0" points="81.229,10.865 84.519,10.865 84.519,10.364 81.229,10.364 "/>
   <polygon class="fil0" points="82.623,12.341 83.124,12.341 83.124,8.883 82.623,8.883 "/>
   <polygon class="fil0" points="91.378,10.865 94.67,10.865 94.67,10.364 91.378,10.364 "/>
   <polygon class="fil0" points="92.773,12.341 93.274,12.341 93.274,8.883 92.773,8.883 "/>
   <polygon class="fil0" points="60.93,1.982 64.219,1.982 64.219,1.482 60.93,1.482 "/>
   <polygon class="fil0" points="62.324,3.459 62.824,3.459 62.824,0 62.324,0 "/>
   <polygon class="fil0" points="71.081,1.982 74.368,1.982 74.368,1.482 71.081,1.482 "/>
   <polygon class="fil0" points="72.473,3.459 72.974,3.459 72.974,0 72.473,0 "/>
   <polygon class="fil0" points="81.229,1.982 84.519,1.982 84.519,1.482 81.229,1.482 "/>
   <polygon class="fil0" points="82.623,3.459 83.124,3.459 83.124,0 82.623,0 "/>
   <polygon class="fil0" points="91.378,1.982 94.67,1.982 94.67,1.482 91.378,1.482 "/>
   <polygon class="fil0" points="92.773,3.459 93.274,3.459 93.274,0 92.773,0 "/>
   <polygon class="fil0" points="91.394,10.865 94.684,10.865 94.684,10.364 91.394,10.364 "/>
   <polygon class="fil0" points="92.788,12.341 93.289,12.341 93.289,8.883 92.788,8.883 "/>
   <polygon class="fil0" points="101.546,10.865 104.833,10.865 104.833,10.364 101.546,10.364 "/>
   <polygon class="fil0" points="102.938,12.341 103.439,12.341 103.439,8.883 102.938,8.883 "/>
   <polygon class="fil0" points="111.694,10.865 114.984,10.865 114.984,10.364 111.694,10.364 "/>
   <polygon class="fil0" points="113.088,12.341 113.588,12.341 113.588,8.883 113.088,8.883 "/>
   <polygon class="fil0" points="121.843,10.865 125.135,10.865 125.135,10.364 121.843,10.364 "/>
   <polygon class="fil0" points="123.238,12.341 123.738,12.341 123.738,8.883 123.238,8.883 "/>
   <polygon class="fil0" points="91.394,1.982 94.684,1.982 94.684,1.482 91.394,1.482 "/>
   <polygon class="fil0" points="92.788,3.459 93.289,3.459 93.289,0 92.788,0 "/>
   <polygon class="fil0" points="101.546,1.982 104.833,1.982 104.833,1.482 101.546,1.482 "/>
   <polygon class="fil0" points="102.938,3.459 103.439,3.459 103.439,0 102.938,0 "/>
   <polygon class="fil0" points="111.694,1.982 114.984,1.982 114.984,1.482 111.694,1.482 "/>
   <polygon class="fil0" points="113.088,3.459 113.588,3.459 113.588,0 113.088,0 "/>
   <polygon class="fil0" points="121.843,1.982 125.135,1.982 125.135,1.482 121.843,1.482 "/>
   <polygon class="fil0" points="123.238,3.459 123.738,3.459 123.738,0 123.238,0 "/>
   <polygon class="fil0" points="121.859,10.865 125.148,10.865 125.148,10.364 121.859,10.364 "/>
   <polygon class="fil0" points="123.253,12.341 123.754,12.341 123.754,8.883 123.253,8.883 "/>
   <polygon class="fil0" points="132.01,10.865 135.298,10.865 135.298,10.364 132.01,10.364 "/>
   <polygon class="fil0" points="133.403,12.341 133.903,12.341 133.903,8.883 133.403,8.883 "/>
   <polygon class="fil0" points="142.159,10.865 145.449,10.865 145.449,10.364 142.159,10.364 "/>
   <polygon class="fil0" points="143.553,12.341 144.053,12.341 144.053,8.883 143.553,8.883 "/>
   <polygon class="fil0" points="152.308,10.865 155.599,10.865 155.599,10.364 152.308,10.364 "/>
   <polygon class="fil0" points="153.703,12.341 154.203,12.341 154.203,8.883 153.703,8.883 "/>
   <polygon class="fil0" points="121.859,1.982 125.148,1.982 125.148,1.482 121.859,1.482 "/>
   <polygon class="fil0" points="123.253,3.459 123.754,3.459 123.754,0 123.253,0 "/>
   <polygon class="fil0" points="132.01,1.982 135.298,1.982 135.298,1.482 132.01,1.482 "/>
   <polygon class="fil0" points="133.403,3.459 133.903,3.459 133.903,0 133.403,0 "/>
   <polygon class="fil0" points="142.159,1.982 145.449,1.982 145.449,1.482 142.159,1.482 "/>
   <polygon class="fil0" points="143.553,3.459 144.053,3.459 144.053,0 143.553,0 "/>
   <polygon class="fil0" points="152.308,1.982 155.599,1.982 155.599,1.482 152.308,1.482 "/>
   <polygon class="fil0" points="153.703,3.459 154.203,3.459 154.203,0 153.703,0 "/>
   <polygon class="fil0" points="152.324,10.865 155.613,10.865 155.613,10.364 152.324,10.364 "/>
   <polygon class="fil0" points="153.718,12.341 154.218,12.341 154.218,8.883 153.718,8.883 "/>
   <polygon class="fil0" points="162.475,10.865 165.762,10.865 165.762,10.364 162.475,10.364 "/>
   <polygon class="fil0" points="163.868,12.341 164.368,12.341 164.368,8.883 163.868,8.883 "/>
   <polygon class="fil0" points="172.623,10.865 175.914,10.865 175.914,10.364 172.623,10.364 "/>
   <polygon class="fil0" points="174.018,12.341 174.518,12.341 174.518,8.883 174.018,8.883 "/>
   <polygon class="fil0" points="182.773,10.865 186.064,10.865 186.064,10.364 182.773,10.364 "/>
   <polygon class="fil0" points="184.167,12.341 184.668,12.341 184.668,8.883 184.167,8.883 "/>
   <polygon class="fil0" points="152.324,1.982 155.613,1.982 155.613,1.482 152.324,1.482 "/>
   <polygon class="fil0" points="153.718,3.459 154.218,3.459 154.218,0 153.718,0 "/>
   <polygon class="fil0" points="162.475,1.982 165.762,1.982 165.762,1.482 162.475,1.482 "/>
   <polygon class="fil0" points="163.868,3.459 164.368,3.459 164.368,0 163.868,0 "/>
   <polygon class="fil0" points="172.623,1.982 175.914,1.982 175.914,1.482 172.623,1.482 "/>
   <polygon class="fil0" points="174.018,3.459 174.518,3.459 174.518,0 174.018,0 "/>
   <polygon class="fil0" points="182.773,1.982 186.064,1.982 186.064,1.482 182.773,1.482 "/>
   <polygon class="fil0" points="184.167,3.459 184.668,3.459 184.668,0 184.167,0 "/>
   <polygon class="fil0" points="182.789,10.865 186.078,10.865 186.078,10.364 182.789,10.364 "/>
   <polygon class="fil0" points="184.183,12.341 184.683,12.341 184.683,8.883 184.183,8.883 "/>
   <polygon class="fil0" points="192.94,10.865 196.227,10.865 196.227,10.364 192.94,10.364 "/>
   <polygon class="fil0" points="194.333,12.341 194.833,12.341 194.833,8.883 194.333,8.883 "/>
   <polygon class="fil0" points="203.088,10.865 206.378,10.865 206.378,10.364 203.088,10.364 "/>
   <polygon class="fil0" points="204.482,12.341 204.983,12.341 204.983,8.883 204.482,8.883 "/>
   <polygon class="fil0" points="213.237,10.865 216.529,10.865 216.529,10.364 213.237,10.364 "/>
   <polygon class="fil0" points="214.632,12.341 215.133,12.341 215.133,8.883 214.632,8.883 "/>
   <polygon class="fil0" points="182.789,1.982 186.078,1.982 186.078,1.482 182.789,1.482 "/>
   <polygon class="fil0" points="184.183,3.459 184.683,3.459 184.683,0 184.183,0 "/>
   <polygon class="fil0" points="192.94,1.982 196.227,1.982 196.227,1.482 192.94,1.482 "/>
   <polygon class="fil0" points="194.333,3.459 194.833,3.459 194.833,0 194.333,0 "/>
   <polygon class="fil0" points="203.088,1.982 206.378,1.982 206.378,1.482 203.088,1.482 "/>
   <polygon class="fil0" points="204.482,3.459 204.983,3.459 204.983,0 204.482,0 "/>
   <polygon class="fil0" points="213.237,1.982 216.529,1.982 216.529,1.482 213.237,1.482 "/>
   <polygon class="fil0" points="214.632,3.459 215.133,3.459 215.133,0 214.632,0 "/>
  </g>
 </g>
</svg>
